<svg xmlns="http://www.w3.org/2000/svg" width="20" height="20" viewBox="0 0 20 20" fill="none">
  <g clip-path="url(#clip0_18_130)">
    <path fill-rule="evenodd" clip-rule="evenodd" d="M6.25 2.5H13.75C15.8167 2.5 17.5 4.175 17.5 6.25V13.7583C17.5 15.825 15.825 17.5083 13.75 17.5083H6.25C4.18333 17.5083 2.5 15.8333 2.5 13.7583V6.25C2.5 4.175 4.175 2.5 6.25 2.5Z" stroke="black" stroke-width="1.5" stroke-linecap="round" stroke-linejoin="round"/>
    <path d="M6.7666 9.25V13.75" stroke="black" stroke-width="1.5" stroke-linecap="round" stroke-linejoin="round"/>
    <path d="M9.7666 13.75V11.125C9.7666 10.0917 10.6083 9.25 11.6416 9.25C12.6749 9.25 13.5166 10.0917 13.5166 11.125V13.75" stroke="black" stroke-width="1.5" stroke-linecap="round" stroke-linejoin="round"/>
    <path d="M6.76683 6.53345C6.66683 6.53345 6.5835 6.61678 6.5835 6.72511C6.5835 6.82511 6.66683 6.90845 6.77516 6.90845C6.87516 6.90845 6.9585 6.82511 6.9585 6.72511C6.9585 6.62511 6.87516 6.54178 6.77516 6.54178" stroke="black" stroke-width="1.5" stroke-linecap="round" stroke-linejoin="round"/>
  </g>
  <defs>
    <clipPath id="clip0_18_130">
      <rect width="20" height="20" fill="white"/>
    </clipPath>
  </defs>
</svg>
