<svg xmlns="http://www.w3.org/2000/svg" id="Calque_1" data-name="Calque 1" height="60px" viewBox="120.09 414.73 839.84 250.55">
  <defs>
    <style>
      .cls-1 {
        fill: #76c0ab;
      }
    </style>
  </defs>
  <path class="cls-1" d="m245.34,414.73c-33.04,0-64.22,12.75-87.78,35.9-23.51,23.09-36.81,53.93-37.46,86.84,0,.04,0,.08,0,.12h.05c-.03.46-.05.92-.06,1.38,0,.06,0,.12,0,.17,0,.09,0,.19,0,.29v.05c0,.17,0,.36,0,.53,0,.75,0,1.38.02,1.95,0,.17,0,.35.01.52.64,32.93,13.94,63.8,37.46,86.9,23.56,23.15,54.74,35.9,87.78,35.9,68.83,0,124.87-55.79,125.27-124.53,0-.24,0-.49,0-.74,0-69.08-56.2-125.27-125.27-125.27Zm-54.63,32.54c16.08-9.55,34.77-15.05,54.63-15.05,59.44,0,107.79,48.35,107.79,107.79,0,11.24-9.15,20.39-20.39,20.39s-20.39-9.15-20.39-20.39c0-53.01-43.13-96.14-96.14-96.14-.47,0-.93,0-1.39.01-.27,0-.55,0-.83.02-.1,0-.2,0-.3,0-.33,0-.66.02-1,.03h-.03c-.45.02-.9.03-1.35.06-.47.02-.95.05-1.42.08-.61.04-1.21.08-1.81.13-1.08.09-2.15.2-3.22.33-.51.06-1.03.12-1.53.19-.56.08-1.12.16-1.68.24-.46.07-.92.15-1.38.22-.13.02-.26.04-.38.06-.46.08-.93.16-1.38.24-.53.1-1.06.2-1.58.31-.15.03-.3.06-.45.09-.89.19-1.78.38-2.67.59-.52.12-1.04.25-1.55.38-.39.1-.78.2-1.17.3-.13.03-.25.07-.38.1h0Zm-18.58,27.38c.45-.3.91-.6,1.37-.9.34-.22.67-.43,1.01-.64.4-.25.8-.5,1.21-.73.4-.24.81-.48,1.22-.71,1.53-.88,3.1-1.71,4.7-2.48.23-.12.46-.22.69-.33,1.02-.48,2.05-.94,3.09-1.37.46-.2.92-.39,1.39-.57.29-.12.59-.23.88-.34.47-.18.93-.36,1.4-.52.28-.1.56-.2.84-.3.75-.26,1.51-.52,2.27-.75.29-.09.58-.19.87-.27.61-.19,1.22-.37,1.84-.53.31-.09.62-.17.93-.25.37-.1.73-.19,1.1-.28.47-.12.95-.23,1.43-.34.4-.09.81-.18,1.22-.27.55-.12,1.11-.23,1.67-.33.4-.08.79-.15,1.18-.22.13-.02.25-.05.37-.06.45-.08.91-.15,1.36-.22.06-.01.12-.02.19-.03.42-.06.84-.12,1.26-.17,1-.13,2-.24,3.01-.34.43-.04.86-.08,1.29-.11.15-.01.29-.02.44-.03.39-.03.79-.05,1.19-.08.22-.01.44-.02.66-.03.66-.03,1.33-.06,1.99-.08.08,0,.15,0,.22,0,.2,0,.4,0,.59,0,.4-.01.8-.01,1.19-.01,43.37,0,78.65,35.28,78.65,78.65,0,11.24-9.15,20.39-20.39,20.39s-20.39-9.15-20.39-20.39c0-.33,0-.66-.01-.99-.26-17.67-7.32-34.25-19.9-46.68-12.62-12.47-29.35-19.34-47.1-19.34-.5,0-1,0-1.49.02h-.23c-.53.02-1.06.03-1.59.06-.55.02-1.1.06-1.64.1-.55.04-1.1.09-1.64.14h-.03c-.45.05-.89.09-1.33.15-.18.02-.36.04-.54.06-.45.06-.9.12-1.35.19h-.02c-.47.07-.94.15-1.42.23-.33.05-.66.11-.99.17-.59.1-1.18.22-1.77.35-.3.06-.61.13-.91.2,0,0,0,0,0,0Zm-16.15,26.89c.82-.67,1.67-1.31,2.54-1.93.26-.19.52-.37.79-.55.79-.54,1.6-1.06,2.43-1.55.23-.15.46-.28.69-.41.23-.13.46-.26.69-.4.26-.15.52-.29.79-.43.28-.15.57-.3.85-.44.35-.18.71-.36,1.07-.53.41-.2.83-.39,1.25-.58.31-.14.61-.27.92-.4.3-.12.59-.24.89-.36.17-.07.34-.14.52-.2.27-.1.55-.21.82-.31.29-.11.58-.22.88-.31.2-.08.4-.14.61-.2.29-.1.57-.19.86-.28.36-.11.72-.22,1.09-.32.35-.1.71-.2,1.06-.29.43-.11.87-.22,1.31-.32.39-.09.78-.17,1.17-.25.48-.1.97-.19,1.45-.27.31-.06.64-.11.96-.16h.02c.31-.05.62-.09.93-.13.3-.04.59-.08.9-.11.33-.04.66-.08,1-.1.09-.01.17-.02.26-.02.31-.03.63-.05.94-.08.71-.05,1.42-.08,2.14-.1.42-.01.84-.02,1.26-.02,26.96,0,49.18,21.93,49.51,48.88v.29s.01.69.01.69c0,.06,0,.13,0,.19h-.02c-.27,10.95-9.41,19.86-20.38,19.86s-20.39-9.15-20.39-20.39c0-20.88-16.99-37.88-37.88-37.88-.31,0-.62,0-.94.01-.3,0-.6.02-.9.03-.31.01-.62.03-.93.05.27-.23.54-.45.82-.68Zm-18.41,39.09v-.29s-.01-.39-.01-.39v-.33s0,.03,0,.03v-.19h.01c.27-10.95,9.41-19.86,20.37-19.86s20.39,9.15,20.39,20.39c0,20.88,16.99,37.88,37.88,37.88.31,0,.62,0,.94-.01.3,0,.6-.02.9-.03.31-.01.62-.03.93-.05-1.08.92-2.2,1.78-3.35,2.61-.26.19-.52.37-.79.55-.36.24-.72.48-1.09.72-.24.16-.48.31-.72.46-.03.02-.06.04-.09.05-.27.18-.56.35-.84.51-.02.02-.05.03-.07.05-.29.17-.59.34-.89.51-.31.17-.62.35-.94.51-.63.34-1.27.66-1.91.97-.57.27-1.15.54-1.73.79-.4.17-.81.34-1.22.51-.28.12-.57.23-.85.33-.43.16-.85.32-1.28.47-.23.09-.47.17-.72.24-.8.26-1.61.51-2.43.73-.3.09-.59.17-.89.24-.5.13-1,.25-1.51.36-.24.06-.48.11-.72.16-.48.1-.97.19-1.45.27-.31.06-.64.11-.96.16h-.02c-.31.05-.62.09-.93.13-.3.04-.59.08-.9.11-.33.04-.66.08-1,.1-.09.01-.17.02-.26.02-.31.03-.63.05-.94.08-.71.05-1.42.08-2.14.1-.42.01-.84.02-1.26.02-26.96,0-49.17-21.93-49.5-48.88Zm35.47,64.9c.61.13,1.22.25,1.84.36.1.02.22.04.32.06.14.03.27.05.41.08.02,0,.03,0,.05.01.03,0,.06.01.09.01.02,0,.03,0,.05,0,.29.05.58.1.87.14.19.04.37.06.55.09.02,0,.05,0,.07.01.03,0,.06,0,.09.01.02,0,.05,0,.07,0,.03,0,.07.01.1.02.05.01.1.02.16.02.29.04.58.08.87.12.05,0,.1.01.16.02.15.02.29.04.44.05.02,0,.05,0,.08.01.4.05.79.09,1.19.13h.03c.26.03.51.05.78.07.26.02.52.04.78.06.03,0,.06,0,.09,0,.55.04,1.1.08,1.64.1.38.02.76.03,1.15.05h.06c.1,0,.21.01.31.01.1,0,.21,0,.31,0,.08,0,.15,0,.23,0,.42,0,.84.01,1.26.01,17.75,0,34.48-6.87,47.1-19.34,1.21-1.19,2.37-2.43,3.47-3.7.33-.37.64-.74.95-1.11.29-.34.57-.68.84-1.03.25-.31.5-.62.74-.94.43-.55.85-1.12,1.26-1.68.22-.3.44-.61.65-.92.08-.1.15-.2.22-.31.21-.3.41-.6.61-.9.11-.16.22-.31.31-.47.24-.37.48-.73.71-1.11.25-.39.49-.79.73-1.18.06-.1.12-.19.17-.29.22-.37.44-.76.65-1.14.03-.04.05-.08.07-.12.19-.33.36-.65.54-.98.13-.23.25-.46.37-.69.17-.32.34-.65.5-.97.2-.4.4-.8.59-1.2.09-.18.18-.36.26-.55.16-.34.31-.68.47-1.03h0c.46.43.93.86,1.42,1.28.23.2.46.39.69.58.23.2.47.38.71.57.24.19.48.37.72.55.42.31.84.61,1.26.9.22.15.44.3.66.44.42.27.84.54,1.27.8.16.1.31.19.48.29.2.12.41.23.61.34.25.15.51.29.77.42.19.1.37.19.56.29.21.11.42.22.63.31.27.13.54.26.82.38.01,0,.02.01.03.01.27.13.55.24.83.36.17.08.34.15.51.22.2.08.41.17.62.24.5.19,1,.37,1.5.55.28.09.55.18.84.27.27.09.55.17.83.25.03,0,.06.02.09.02.23.07.47.13.71.19.47.13.94.24,1.42.34.24.06.49.11.74.16.26.05.51.1.76.15.23.04.45.08.68.12,1.08.17,2.17.3,3.28.38.28.02.57.04.85.05.62.03,1.25.05,1.89.05.37,0,.73,0,1.1-.02h.03c.17,0,.33-.01.5-.02.15,0,.3-.01.45-.02.03,0,.06,0,.1,0,.03,0,.06,0,.09,0,.22-.01.43-.02.64-.04.08,0,.15-.01.22-.02.3-.02.6-.05.9-.09.15-.01.31-.03.47-.05.02,0,.03,0,.06,0,.21-.02.42-.05.63-.08.07,0,.13-.02.2-.03.19-.02.38-.05.57-.09.07,0,.14-.02.2-.03.08-.01.16-.02.24-.03.08-.01.16-.03.24-.05.02,0,.05,0,.08-.01.09-.01.17-.03.26-.05.22-.03.43-.08.65-.12,0,0,0,0,0,0,.3-.06.59-.12.88-.19.01,0,.02,0,.04,0,.24-.05.48-.11.72-.17.25-.06.5-.12.74-.19.12-.03.24-.06.36-.1.06-.02.12-.03.18-.05.24-.07.48-.14.71-.22.02,0,.05-.01.06-.02.1-.03.21-.06.31-.1-13.09,25.29-39.51,42.6-69.89,42.6-16.38,0-31.52-4.88-44.07-13.31.3.06.6.13.9.19Zm72.3,42.25c-19.86,0-38.57-5.5-54.64-15.06,8.21,2.25,16.78,3.41,25.51,3.41,43.04,0,79.56-28.43,91.78-67.49,1.03.89,2.11,1.73,3.23,2.51.21.15.42.29.63.43.06.03.12.08.18.12.21.14.42.27.64.41.07.04.14.09.21.13.24.15.48.3.73.44.03.02.06.04.09.06.29.16.57.33.86.49.58.31,1.17.62,1.77.91.02.01.04.02.06.03.31.15.62.29.93.43.23.1.46.21.69.3.15.06.3.13.45.19.26.1.51.2.77.3.25.1.5.19.75.28.26.09.51.18.77.27.24.08.48.16.73.23,1.5.47,3.04.85,4.6,1.12.16.03.32.06.48.08.26.05.51.09.78.12.3.05.59.08.89.12.16.02.31.04.47.05.3.03.6.06.9.09.31.02.64.05.95.06.36.02.72.04,1.08.05.37.01.73.02,1.1.02.75,0,1.48-.02,2.21-.06.23-.01.47-.03.69-.05.96-.08,1.91-.18,2.85-.33.31-.05.63-.1.94-.16,1.24-.22,2.46-.5,3.66-.85.3-.09.6-.17.89-.27,1-.31,1.98-.66,2.94-1.05.13-.05.26-.1.38-.16-14.55,42.32-54.77,72.83-101.97,72.83Z"/>
  <g>
    <path class="cls-1" d="m544.64,590.17c0,.41-.1.75-.31,1.03-.2.28-.53.52-.99.72s-1.09.35-1.9.46c-.81.1-1.82.15-3.04.15s-2.31-.05-3.12-.15c-.81-.1-1.46-.25-1.94-.46s-.82-.44-1.03-.72-.3-.62-.3-1.03v-41.58c0-2.89-.25-5.52-.76-7.91-.51-2.38-1.32-4.44-2.43-6.16-1.12-1.72-2.53-3.04-4.26-3.95s-3.75-1.37-6.08-1.37c-2.89,0-5.79,1.12-8.7,3.35-2.91,2.23-6.12,5.5-9.62,9.81v47.82c0,.41-.1.75-.31,1.03s-.55.52-1.02.72c-.48.2-1.13.35-1.94.46-.81.1-1.82.15-3.04.15s-2.17-.05-3-.15-1.5-.25-1.98-.46-.81-.44-.99-.72-.27-.62-.27-1.03v-41.58c0-2.89-.28-5.52-.84-7.91-.56-2.38-1.4-4.44-2.51-6.16-1.12-1.72-2.52-3.04-4.22-3.95-1.7-.91-3.71-1.37-6.04-1.37-2.89,0-5.8,1.12-8.74,3.35-2.94,2.23-6.13,5.5-9.58,9.81v47.82c0,.41-.1.75-.31,1.03-.2.28-.53.52-.99.72s-1.09.35-1.9.46-1.85.15-3.12.15-2.23-.05-3.04-.15c-.81-.1-1.46-.25-1.94-.46s-.81-.44-.99-.72c-.18-.28-.27-.62-.27-1.03v-68.42c0-.4.07-.75.23-1.02s.46-.53.91-.76c.46-.23,1.04-.38,1.75-.46.71-.08,1.65-.11,2.81-.11s2.04.04,2.77.11,1.3.23,1.71.46c.41.23.7.48.87.76.18.28.27.62.27,1.02v9.05c3.85-4.31,7.59-7.46,11.21-9.46,3.62-2,7.28-3,10.98-3,2.84,0,5.39.33,7.64.99s4.24,1.58,5.97,2.77c1.72,1.19,3.19,2.61,4.41,4.26,1.22,1.65,2.23,3.48,3.04,5.51,2.28-2.48,4.45-4.59,6.5-6.31,2.05-1.72,4.03-3.12,5.93-4.18,1.9-1.06,3.75-1.84,5.55-2.32,1.8-.48,3.61-.72,5.43-.72,4.41,0,8.11.77,11.1,2.32,2.99,1.55,5.41,3.61,7.26,6.19,1.85,2.59,3.17,5.61,3.95,9.09.78,3.47,1.18,7.13,1.18,10.98v43.25Z"/>
    <path class="cls-1" d="m625.9,553c0,1.98-.5,3.38-1.49,4.22-.99.84-2.13,1.25-3.4,1.25h-45.06c0,3.8.38,7.22,1.14,10.26.76,3.04,2.04,5.65,3.82,7.83,1.78,2.18,4.1,3.85,6.95,5.02,2.85,1.17,6.34,1.75,10.46,1.75,3.26,0,6.16-.27,8.71-.8,2.55-.53,4.75-1.13,6.61-1.79,1.86-.66,3.39-1.25,4.58-1.79s2.1-.8,2.71-.8c.36,0,.67.09.95.27.28.18.5.45.65.8.15.36.27.85.34,1.48.08.63.11,1.41.11,2.32,0,.66-.03,1.23-.07,1.71-.05.48-.11.91-.19,1.29s-.2.72-.38,1.03c-.18.3-.41.6-.69.87s-1.1.73-2.47,1.37-3.14,1.25-5.32,1.86c-2.18.61-4.7,1.15-7.56,1.63s-5.92.72-9.16.72c-5.63,0-10.55-.79-14.79-2.36-4.23-1.57-7.79-3.9-10.68-6.99s-5.07-6.97-6.54-11.63c-1.47-4.66-2.2-10.08-2.2-16.27s.76-11.16,2.28-15.85c1.52-4.69,3.71-8.67,6.58-11.93,2.86-3.27,6.32-5.78,10.38-7.53,4.05-1.75,8.59-2.62,13.61-2.62,5.37,0,9.94.86,13.72,2.58,3.77,1.72,6.88,4.04,9.31,6.96,2.43,2.91,4.22,6.34,5.36,10.26,1.14,3.93,1.71,8.12,1.71,12.58v2.28Zm-12.62-3.72c.15-6.59-1.31-11.76-4.4-15.51-3.09-3.75-7.66-5.63-13.73-5.63-3.11,0-5.84.58-8.18,1.75-2.35,1.17-4.31,2.71-5.89,4.64s-2.8,4.17-3.67,6.73c-.87,2.56-1.35,5.23-1.45,8.02h37.32Z"/>
    <path class="cls-1" d="m703.6,590.17c0,.41-.09.76-.27,1.06-.18.3-.48.55-.91.72s-1,.32-1.71.42c-.71.1-1.57.15-2.58.15-1.06,0-1.95-.05-2.66-.15s-1.29-.24-1.75-.42-.79-.42-.99-.72c-.2-.31-.3-.66-.3-1.06v-9.05c-3.6,3.9-7.34,6.94-11.21,9.12s-8.12,3.27-12.73,3.27c-5.02,0-9.3-.98-12.85-2.93-3.55-1.95-6.42-4.59-8.63-7.91-2.2-3.32-3.81-7.22-4.83-11.71-1.01-4.48-1.52-9.21-1.52-14.18,0-5.88.63-11.19,1.9-15.93,1.27-4.74,3.14-8.78,5.63-12.13,2.48-3.34,5.56-5.92,9.24-7.72,3.67-1.8,7.92-2.7,12.73-2.7,4,0,7.66.87,10.98,2.62s6.6,4.32,9.84,7.72v-39.76c0-.35.09-.7.27-1.03.18-.33.52-.58,1.03-.76.51-.18,1.15-.33,1.94-.46.78-.13,1.79-.19,3-.19s2.3.06,3.12.19c.81.13,1.44.28,1.9.46.46.18.8.43,1.02.76.23.33.34.67.34,1.03v101.26Zm-12.62-48.12c-3.4-4.21-6.68-7.41-9.84-9.62-3.17-2.2-6.47-3.31-9.92-3.31-3.19,0-5.91.76-8.13,2.28-2.23,1.52-4.04,3.52-5.43,6.01-1.4,2.48-2.41,5.29-3.04,8.44-.63,3.14-.95,6.34-.95,9.58,0,3.45.27,6.82.8,10.11.53,3.29,1.46,6.22,2.77,8.78,1.32,2.56,3.07,4.61,5.24,6.16s4.92,2.32,8.21,2.32c1.67,0,3.28-.23,4.83-.69s3.13-1.22,4.75-2.28c1.62-1.06,3.32-2.44,5.09-4.14,1.77-1.7,3.65-3.79,5.63-6.27v-27.37Z"/>
    <path class="cls-1" d="m740.77,498.65c0,2.94-.56,4.94-1.67,6.01-1.12,1.06-3.17,1.6-6.16,1.6s-4.95-.52-6.04-1.56c-1.09-1.04-1.63-3-1.63-5.89s.56-4.94,1.67-6.01,3.17-1.6,6.16-1.6,4.95.52,6.04,1.56c1.09,1.04,1.63,3,1.63,5.89Zm-1.44,91.53c0,.41-.1.75-.31,1.03-.2.28-.53.52-.99.72s-1.09.35-1.9.46-1.85.15-3.12.15-2.23-.05-3.04-.15c-.81-.1-1.46-.25-1.94-.46s-.81-.44-.99-.72c-.18-.28-.27-.62-.27-1.03v-68.42c0-.35.09-.68.27-.99.18-.31.51-.56.99-.76.48-.2,1.13-.35,1.94-.46.81-.1,1.82-.15,3.04-.15s2.31.05,3.12.15c.81.1,1.44.25,1.9.46.46.2.78.46.99.76.2.3.31.63.31.99v68.42Z"/>
    <path class="cls-1" d="m805.46,571.55c0,3.5-.65,6.61-1.94,9.35-1.29,2.74-3.13,5.04-5.51,6.92s-5.22,3.29-8.51,4.26c-3.29.96-6.92,1.44-10.87,1.44-2.43,0-4.75-.19-6.96-.57s-4.18-.86-5.93-1.44c-1.75-.58-3.23-1.19-4.45-1.82-1.22-.63-2.1-1.2-2.66-1.71s-.96-1.22-1.22-2.13c-.25-.91-.38-2.15-.38-3.72,0-.96.05-1.77.15-2.43.1-.66.23-1.19.38-1.6.15-.41.37-.7.65-.87.28-.18.59-.27.95-.27.56,0,1.38.34,2.47,1.03,1.09.69,2.43,1.43,4.03,2.24,1.6.81,3.48,1.56,5.66,2.24,2.18.69,4.69,1.03,7.52,1.03,2.13,0,4.05-.23,5.78-.68,1.72-.46,3.22-1.13,4.48-2.02s2.24-2.02,2.93-3.38c.68-1.37,1.03-2.99,1.03-4.86s-.49-3.55-1.48-4.87c-.99-1.32-2.29-2.48-3.92-3.5s-3.45-1.91-5.47-2.7c-2.03-.78-4.12-1.61-6.27-2.47-2.16-.86-4.26-1.84-6.31-2.93-2.05-1.09-3.89-2.42-5.51-3.99-1.62-1.57-2.93-3.45-3.91-5.63-.99-2.18-1.48-4.79-1.48-7.83,0-2.69.52-5.26,1.56-7.72,1.04-2.46,2.6-4.61,4.68-6.46,2.08-1.85,4.68-3.33,7.79-4.45,3.12-1.11,6.75-1.67,10.91-1.67,1.82,0,3.65.15,5.47.46,1.82.3,3.47.68,4.94,1.14,1.47.46,2.72.95,3.76,1.48,1.04.53,1.83,1,2.36,1.41.53.41.89.76,1.06,1.06.18.3.3.65.38,1.03.08.38.15.85.23,1.41s.11,1.24.11,2.05c0,.86-.04,1.61-.11,2.24-.08.63-.2,1.15-.38,1.56-.18.41-.39.7-.65.87-.25.18-.53.27-.84.27-.46,0-1.12-.28-1.98-.84-.86-.56-1.98-1.15-3.35-1.79-1.37-.63-2.98-1.23-4.83-1.79-1.85-.56-3.97-.84-6.35-.84-2.13,0-4,.24-5.62.72-1.62.48-2.95,1.17-3.99,2.05-1.04.89-1.82,1.94-2.36,3.15-.53,1.22-.8,2.53-.8,3.95,0,1.98.51,3.64,1.52,4.98,1.01,1.34,2.33,2.52,3.95,3.53,1.62,1.01,3.47,1.93,5.55,2.74,2.08.81,4.19,1.65,6.35,2.51,2.16.86,4.28,1.82,6.39,2.89,2.1,1.06,3.96,2.36,5.59,3.88,1.62,1.52,2.93,3.35,3.91,5.47.99,2.13,1.48,4.66,1.48,7.6Z"/>
    <path class="cls-1" d="m881.17,519.78c1.52,0,2.56.34,3.12,1.02.56.69.84,1.69.84,3v66.36c0,.41-.1.75-.3,1.03-.2.28-.55.52-1.03.72s-1.13.35-1.94.46-1.8.15-2.96.15c-1.27,0-2.31-.05-3.12-.15s-1.46-.25-1.94-.46c-.48-.2-.82-.44-1.03-.72-.2-.28-.31-.62-.31-1.03v-59.98h-35.35v38.16c0,4.71.7,8.27,2.09,10.68s3.89,3.61,7.49,3.61c1.16,0,2.2-.11,3.12-.34.91-.23,1.72-.47,2.43-.72.71-.25,1.32-.49,1.82-.72.51-.23.96-.34,1.37-.34.25,0,.49.06.72.19.23.13.41.37.53.72.13.35.24.84.34,1.44.1.61.15,1.37.15,2.28,0,1.47-.1,2.62-.3,3.46-.2.84-.51,1.47-.91,1.9-.41.43-1.01.82-1.82,1.18s-1.74.65-2.77.87c-1.04.23-2.14.42-3.31.57-1.17.15-2.33.23-3.5.23-3.55,0-6.59-.47-9.12-1.41-2.53-.94-4.61-2.36-6.23-4.26-1.62-1.9-2.8-4.31-3.54-7.22s-1.1-6.35-1.1-10.3v-39.99h-9.58c-.76,0-1.37-.41-1.82-1.22s-.68-2.13-.68-3.95c0-.96.06-1.77.19-2.43.13-.66.29-1.2.49-1.64.2-.43.47-.73.8-.91.33-.18.7-.27,1.1-.27h9.5v-16.27c0-.35.09-.69.27-.99s.51-.57.99-.8c.48-.23,1.13-.39,1.94-.49.81-.1,1.82-.15,3.04-.15s2.31.05,3.12.15c.81.1,1.44.27,1.9.49.46.23.79.49.99.8s.31.63.31.99v16.27h44.01Zm5.4-21.13c0,2.94-.56,4.94-1.67,6.01-1.12,1.06-3.17,1.6-6.16,1.6s-4.96-.52-6.04-1.56c-1.09-1.04-1.63-3-1.63-5.89s.56-4.94,1.67-6.01c1.11-1.06,3.17-1.6,6.16-1.6s4.95.52,6.04,1.56c1.09,1.04,1.63,3,1.63,5.89Z"/>
    <path class="cls-1" d="m959.93,590.25c0,.61-.2,1.06-.61,1.37-.41.3-.96.53-1.67.68-.71.15-1.75.23-3.12.23s-2.37-.08-3.16-.23c-.78-.15-1.36-.38-1.71-.68-.35-.31-.53-.76-.53-1.37v-6.84c-2.99,3.19-6.32,5.68-10,7.45-3.68,1.77-7.56,2.66-11.67,2.66-3.6,0-6.85-.47-9.77-1.41-2.91-.94-5.4-2.29-7.45-4.07-2.05-1.77-3.65-3.95-4.79-6.54-1.14-2.59-1.71-5.52-1.71-8.82,0-3.85.78-7.2,2.36-10.04,1.57-2.84,3.83-5.19,6.76-7.07,2.94-1.87,6.54-3.28,10.8-4.22s9.05-1.41,14.37-1.41h9.43v-5.32c0-2.63-.28-4.97-.84-6.99-.56-2.03-1.46-3.71-2.7-5.06-1.24-1.34-2.85-2.36-4.83-3.04-1.98-.69-4.41-1.03-7.3-1.03-3.09,0-5.87.37-8.32,1.1-2.46.74-4.61,1.55-6.46,2.43-1.85.89-3.4,1.7-4.64,2.43-1.24.74-2.17,1.1-2.77,1.1-.41,0-.76-.1-1.06-.31-.31-.2-.57-.51-.8-.91-.23-.41-.39-.92-.49-1.56-.1-.63-.15-1.33-.15-2.09,0-1.27.09-2.27.27-3s.61-1.43,1.29-2.09c.68-.66,1.86-1.43,3.53-2.32s3.6-1.7,5.78-2.43c2.18-.73,4.56-1.34,7.14-1.82,2.59-.48,5.19-.72,7.83-.72,4.92,0,9.1.56,12.54,1.67,3.45,1.12,6.23,2.75,8.36,4.9,2.13,2.15,3.67,4.83,4.64,8.02s1.44,6.92,1.44,11.17v46.14Zm-12.47-31.24h-10.72c-3.45,0-6.44.29-8.97.87-2.53.58-4.64,1.44-6.31,2.59-1.67,1.14-2.9,2.51-3.69,4.1-.79,1.6-1.18,3.43-1.18,5.51,0,3.55,1.13,6.37,3.38,8.48s5.41,3.15,9.46,3.15c3.29,0,6.35-.84,9.16-2.51,2.81-1.67,5.76-4.23,8.86-7.68v-14.52Z"/>
  </g>
</svg>