<svg xmlns="http://www.w3.org/2000/svg" width="216" height="112" viewBox="0 0 216 112" fill="none">
  <path fill-rule="evenodd" clip-rule="evenodd" d="M130.385 24.0606C130.248 24.0606 130.115 24.0176 129.994 23.9354C129.696 23.7202 129.63 23.3055 129.845 23.0081L146.325 0.274969C146.541 -0.0224004 146.955 -0.0889173 147.253 0.126284C147.55 0.341486 147.617 0.756239 147.401 1.05361L130.925 23.7828C130.796 23.9628 130.592 24.0567 130.385 24.0567V24.0606ZM102.268 27.9304C101.38 27.9304 100.621 28.2277 99.9906 28.8186C99.3567 29.4094 99.0437 30.1645 99.0437 31.0762C99.0437 31.937 99.3606 32.6687 99.9906 33.2752C100.621 33.8817 101.384 34.183 102.268 34.183C103.152 34.183 103.946 33.8817 104.569 33.2752C105.187 32.6687 105.496 31.937 105.496 31.0762C105.496 30.2154 105.187 29.4407 104.569 28.8381C103.95 28.2316 103.183 27.9304 102.268 27.9304ZM17.1222 30.2467C15.5767 29.5072 13.769 29.1394 11.6992 29.1394H0V57.9804H5.44656V46.7664H11.6992C13.769 46.7664 15.5767 46.3986 17.1222 45.6591C18.6678 44.9196 19.8768 43.8827 20.7533 42.5523C21.6258 41.222 22.0641 39.6843 22.0641 37.9353C22.0641 36.1863 21.6258 34.6564 20.7533 33.3378C19.8807 32.0192 18.6678 30.9901 17.1222 30.2506V30.2467ZM15.248 41.0381C14.3872 41.7894 13.2056 42.1689 11.6992 42.1689H5.44656V33.7408H11.6992C13.2056 33.7408 14.3872 34.1164 15.248 34.8716C16.1088 35.6228 16.5392 36.648 16.5392 37.9353C16.5392 39.2226 16.1088 40.2869 15.248 41.042V41.0381ZM33.6537 37.9509C32.6168 38.3696 31.7168 39.0739 30.9499 40.0677C30.6056 40.5138 30.32 41.042 30.0813 41.6485V37.6888H24.7991V57.9764H30.1243V49.3058C30.1243 47.6389 30.3865 46.2812 30.9108 45.2326C31.4351 44.184 32.1551 43.4131 33.0706 42.9123C33.9862 42.4154 35.074 42.165 36.3378 42.165H37.4256V37.3249H36.6978C35.7039 37.3249 34.6866 37.5323 33.6537 37.9509ZM49.4964 37.0471C51.5115 37.0471 53.3074 37.497 54.8804 38.397V38.3892C56.4533 39.293 57.6819 40.5373 58.5701 42.1219C59.4583 43.7066 59.9004 45.5495 59.9004 47.6467V49.4623H44.0929C44.2338 50.1666 44.4646 50.8083 44.7933 51.3795C45.3724 52.389 46.1627 53.1559 47.1722 53.6802C48.1817 54.2045 49.3438 54.4667 50.6624 54.4667C53.0844 54.4667 55.1269 53.5237 56.7937 51.6417L59.6187 54.9088C58.5975 56.067 57.2867 56.9748 55.6864 57.6321C54.0861 58.2934 52.3175 58.622 50.3807 58.622C48.0409 58.622 45.9867 58.1682 44.2103 57.2526C42.4339 56.337 41.0488 55.0732 40.0549 53.4611C39.0611 51.8491 38.5642 49.9788 38.5642 47.8541C38.5642 45.7295 39.0415 43.8553 39.9962 42.2276C40.9509 40.5999 42.2539 39.3321 43.909 38.4165C45.5641 37.5049 47.4813 37.0471 49.4964 37.0471ZM49.4964 41.1985C48.393 41.1985 47.4266 41.4607 46.5931 41.985C45.7597 42.5093 45.1063 43.2605 44.6368 44.2426C44.3707 44.7943 44.1907 45.4126 44.0733 46.0777H54.6065C54.5047 45.3539 54.3209 44.6926 54.0352 44.1018C53.5892 43.1901 52.9866 42.478 52.2197 41.9654C51.4528 41.4529 50.5998 41.1985 49.4964 41.1985ZM88.2288 37.0432C87.2624 37.0432 86.2803 37.2114 85.2825 37.5479C84.2887 37.8844 83.3927 38.4479 82.6023 39.2421C81.988 39.8564 81.4911 40.6586 81.1076 41.6368C80.6889 40.2556 80.0042 39.1795 79.0495 38.4165C77.907 37.501 76.4866 37.0471 74.7924 37.0471C73.9316 37.0471 73.063 37.2036 72.1904 37.5127C71.3179 37.8218 70.5236 38.3344 69.8115 39.0465C69.2598 39.5982 68.8098 40.3338 68.4616 41.2455V37.6927H63.1793V57.9804H68.5046V47.9754C68.5046 46.4416 68.7276 45.2013 69.1698 44.2426C69.6119 43.2879 70.191 42.5876 70.9031 42.1454C71.6152 41.7033 72.3743 41.4802 73.1804 41.4802C74.3111 41.4802 75.1954 41.8637 75.841 42.6306C76.4866 43.3975 76.8075 44.5596 76.8075 46.1208V57.9804H82.1327V47.9754C82.1327 46.4416 82.3558 45.2013 82.7979 44.2426C83.2401 43.2879 83.8191 42.5876 84.5313 42.1454C85.2434 41.7033 86.0025 41.4802 86.8085 41.4802C87.9119 41.4802 88.7844 41.8637 89.43 42.6306C90.0756 43.3975 90.3965 44.5596 90.3965 46.1208V57.9804H95.7218V45.7178C95.7218 42.8927 95.0605 40.7446 93.7458 39.2656C92.4272 37.7866 90.5843 37.0471 88.221 37.0471L88.2288 37.0432ZM99.6071 37.6888H104.932V57.9764H99.6071V37.6888ZM119.034 37.0471C121.049 37.0471 122.845 37.497 124.418 38.397V38.3892C125.991 39.293 127.219 40.5373 128.108 42.1219C128.996 43.7066 129.438 45.5495 129.438 47.6467V49.4623H113.63C113.771 50.1666 114.002 50.8083 114.331 51.3795C114.91 52.389 115.7 53.1559 116.71 53.6802C117.719 54.2045 118.881 54.4667 120.2 54.4667C122.622 54.4667 124.664 53.5237 126.331 51.6417L129.156 54.9088C128.135 56.067 126.824 56.9748 125.224 57.6321C123.624 58.2934 121.855 58.622 119.918 58.622C117.578 58.622 115.524 58.1682 113.748 57.2526C111.971 56.337 110.586 55.0732 109.592 53.4611C108.599 51.8491 108.102 49.9788 108.102 47.8541C108.102 45.7295 108.579 43.8553 109.534 42.2276C110.489 40.5999 111.791 39.3321 113.447 38.4165C115.102 37.5049 117.019 37.0471 119.034 37.0471ZM119.034 41.1985C117.931 41.1985 116.964 41.4607 116.131 41.985C115.297 42.5093 114.644 43.2605 114.174 44.2426C113.908 44.7943 113.728 45.4126 113.611 46.0777H124.144C124.042 45.3539 123.858 44.6926 123.573 44.1018C123.127 43.1901 122.524 42.478 121.757 41.9654C120.99 41.4529 120.137 41.1985 119.034 41.1985ZM141.575 37.9509C140.539 38.3696 139.639 39.0739 138.872 40.0677C138.527 40.5138 138.242 41.042 138.003 41.6485V37.6888H132.721V57.9764H138.046V49.3058C138.046 47.6389 138.308 46.2812 138.833 45.2326C139.357 44.184 140.077 43.4131 140.992 42.9123C141.908 42.4154 142.996 42.165 144.26 42.165H145.347V37.3249H144.62C143.626 37.3249 142.608 37.5323 141.575 37.9509ZM155.47 57.9804L166.844 29.1394H172.854L184.228 57.9804H178.379L175.988 51.6495H163.506L161.116 57.9804H155.47ZM169.751 35.1103L165.244 47.0481H165.248H174.259L169.751 35.1103ZM195.681 37.9509C194.644 38.3696 193.744 39.0739 192.977 40.0677C192.633 40.5138 192.347 41.042 192.109 41.6485V37.6888H186.826V57.9764H192.152V49.3058C192.152 47.6389 192.414 46.2812 192.938 45.2326C193.463 44.184 194.182 43.4131 195.098 42.9123C196.014 42.4154 197.101 42.165 198.365 42.165H199.453V37.3249H198.725C197.731 37.3249 196.714 37.5323 195.681 37.9509ZM211.199 53.1168C211.524 53.4533 212.032 53.6215 212.733 53.6215V53.6255H216V57.9804H210.917C209.086 57.9804 207.709 57.5147 206.782 56.5874C205.854 55.6601 205.389 54.2789 205.389 52.4516V41.9654H201.84V37.6888H205.389V32.3244H210.714V37.6888H215.757V41.9654H210.714V51.5243C210.714 52.2482 210.878 52.7803 211.199 53.1168ZM66.2587 111.863C66.3794 111.945 66.5118 111.988 66.648 111.988C66.8547 111.988 67.0573 111.894 67.186 111.714L83.6626 88.9851C83.8778 88.6877 83.8113 88.2729 83.514 88.0577C83.2166 87.8425 82.8018 87.9091 82.5866 88.2064L66.11 110.936C65.8948 111.233 65.9613 111.648 66.2587 111.863ZM45.6267 69.973L42.876 76.9455H44.2416L44.8207 75.4156H47.8374L48.4165 76.9455H49.829L47.0783 69.973H45.6267ZM45.2393 74.3044L46.3271 71.4168L47.4148 74.3044H45.2393ZM60.5969 73.2166C60.3856 73.5375 60.0961 73.7879 59.7205 73.9679C59.6109 74.0188 59.4935 74.0618 59.3761 74.097L61.626 76.9455H60.0178L57.9597 74.234H56.8994V76.9455H55.5808V69.973H58.4097C58.9105 69.973 59.3448 70.063 59.7205 70.2429C60.0922 70.4229 60.3856 70.6733 60.5969 70.9903C60.8082 71.3072 60.9138 71.6789 60.9138 72.1015C60.9138 72.5241 60.8082 72.8958 60.5969 73.2166ZM58.4058 71.0842H56.8954V73.1227H58.4058C58.7697 73.1227 59.0553 73.0327 59.2627 72.8488C59.47 72.6649 59.5757 72.4067 59.5757 72.0976C59.5757 71.7885 59.47 71.5381 59.2627 71.3581C59.0553 71.1742 58.7697 71.0842 58.4058 71.0842ZM69.428 71.2994C69.7763 71.0842 70.1714 70.9785 70.6136 70.9785C71.0244 70.9785 71.3961 71.0724 71.7287 71.2563C72.0613 71.4402 72.3391 71.6907 72.5543 72.0037L73.4229 71.1272C73.1177 70.7359 72.7226 70.4229 72.2335 70.1803C71.7444 69.9417 71.2044 69.8204 70.6136 69.8204C70.0814 69.8204 69.5884 69.9104 69.1346 70.0864C68.6807 70.2664 68.2894 70.5207 67.9607 70.8455C67.6281 71.1742 67.3699 71.5615 67.186 72.0076C67.0021 72.4537 66.9082 72.9349 66.9082 73.4553C66.9082 73.9757 66.9982 74.4765 67.1782 74.9187C67.3582 75.3608 67.6086 75.7482 67.9373 76.073C68.2659 76.4016 68.6533 76.656 69.1033 76.832C69.5532 77.0081 70.0462 77.102 70.5862 77.102C71.177 77.102 71.7209 76.9807 72.2217 76.742C72.7186 76.4995 73.1217 76.1864 73.4269 75.7952L72.5582 74.9187C72.343 75.2317 72.0691 75.4782 71.7326 75.666C71.3961 75.8538 71.0244 75.9438 70.6175 75.9438C70.1753 75.9438 69.7802 75.8382 69.4319 75.623C69.0837 75.4078 68.8098 75.1143 68.6063 74.7387C68.4029 74.3631 68.3051 73.9366 68.3051 73.4553C68.3051 72.974 68.4068 72.5476 68.6063 72.1758C68.8059 71.8041 69.0837 71.5107 69.4319 71.2994H69.428ZM80.5872 72.8019H83.9131V69.973H85.2317V76.9455H83.9131V73.9209H80.5872V76.9455H79.2725V69.973H80.5872V72.8019ZM92.8772 69.973H91.5586V76.9455H92.8772V69.973ZM100.832 71.092H98.6485V69.973H104.334V71.092H102.15V76.9455H100.832V71.092ZM110.121 76.9455H115.027V75.8343H111.439V73.9718H114.843V72.8606H111.439V71.0842H115.027V69.973H110.121V76.9455ZM124.445 70.9785C124.003 70.9785 123.608 71.0842 123.26 71.2994H123.264C122.915 71.5107 122.638 71.8041 122.438 72.1758C122.239 72.5476 122.137 72.974 122.137 73.4553C122.137 73.9366 122.235 74.3631 122.438 74.7387C122.642 75.1143 122.915 75.4078 123.264 75.623C123.612 75.8382 124.007 75.9438 124.449 75.9438C124.856 75.9438 125.228 75.8538 125.564 75.666C125.901 75.4782 126.175 75.2317 126.39 74.9187L127.259 75.7952C126.953 76.1864 126.55 76.4995 126.053 76.742C125.553 76.9807 125.009 77.102 124.418 77.102C123.878 77.102 123.385 77.0081 122.935 76.832C122.485 76.656 122.098 76.4016 121.769 76.073C121.44 75.7482 121.19 75.3608 121.01 74.9187C120.83 74.4765 120.74 73.9757 120.74 73.4553C120.74 72.9349 120.834 72.4537 121.018 72.0076C121.202 71.5615 121.46 71.1742 121.792 70.8455C122.121 70.5207 122.512 70.2664 122.966 70.0864C123.42 69.9104 123.913 69.8204 124.445 69.8204C125.036 69.8204 125.576 69.9417 126.065 70.1803C126.554 70.4229 126.95 70.7359 127.255 71.1272L126.386 72.0037C126.171 71.6907 125.893 71.4402 125.56 71.2563C125.228 71.0724 124.856 70.9785 124.445 70.9785ZM132.74 71.092H134.924V76.9455H136.242V71.092H138.426V69.973H132.74V71.092ZM148.415 75.4665C148.708 75.1535 148.857 74.727 148.857 74.1948V69.973H150.164V74.1948C150.164 75.1104 149.902 75.8264 149.374 76.3351C148.845 76.8477 148.102 77.102 147.178 77.102C146.255 77.102 145.527 76.8477 144.999 76.3351C144.471 75.8264 144.205 75.1104 144.205 74.1948V69.973H145.523V74.1948C145.523 74.727 145.668 75.1495 145.962 75.4665C146.255 75.7834 146.658 75.9399 147.182 75.9399C147.707 75.9399 148.118 75.7834 148.415 75.4665ZM160.599 73.9679C160.975 73.7879 161.264 73.5375 161.476 73.2166C161.687 72.8958 161.793 72.5241 161.793 72.1015C161.793 71.6789 161.687 71.3072 161.476 70.9903C161.264 70.6733 160.971 70.4229 160.599 70.2429C160.224 70.063 159.789 69.973 159.288 69.973H156.46V76.9455H157.778V74.234H158.839L160.897 76.9455H162.505L160.255 74.097C160.372 74.0618 160.49 74.0188 160.599 73.9679ZM157.774 71.0842H159.285C159.648 71.0842 159.934 71.1742 160.141 71.3581C160.349 71.5381 160.454 71.7885 160.454 72.0976C160.454 72.4067 160.349 72.6649 160.141 72.8488C159.934 73.0327 159.648 73.1227 159.285 73.1227H157.774V71.0842ZM173.12 69.973V71.0842H169.532V72.8606H172.936V73.9718H169.532V75.8343H173.12V76.9455H168.217V69.973H173.12Z" fill="black"/>
</svg>
