<?xml version="1.0" standalone="no"?>
<!DOCTYPE svg PUBLIC "-//W3C//DTD SVG 20010904//EN"
 "http://www.w3.org/TR/2001/REC-SVG-20010904/DTD/svg10.dtd">
<svg version="1.0" xmlns="http://www.w3.org/2000/svg"
 width="700.000000pt" height="700.000000pt" viewBox="0 0 700.000000 700.000000"
 preserveAspectRatio="xMidYMid meet">
<metadata>
Created by potrace 1.14, written by Peter Selinger 2001-2017
</metadata>
<g transform="translate(0.000000,700.000000) scale(0.100000,-0.100000)"
fill="#000000" stroke="none">
<path d="M3278 6995 c-1 -1 -41 -6 -88 -9 -47 -4 -96 -8 -110 -10 -14 -2 -46
-7 -71 -10 -25 -4 -57 -9 -70 -11 -13 -2 -41 -6 -61 -9 -84 -13 -279 -60 -403
-98 -235 -73 -544 -206 -712 -309 -36 -21 -67 -39 -70 -39 -4 0 -236 -154
-257 -171 -6 -5 -49 -39 -96 -76 -404 -316 -743 -730 -970 -1182 -130 -259
-244 -586 -294 -841 -8 -41 -17 -84 -19 -95 -5 -20 -22 -131 -31 -195 -28
-193 -28 -688 -1 -851 2 -13 6 -46 9 -74 36 -319 165 -739 329 -1070 358 -725
995 -1332 1732 -1650 61 -26 125 -54 143 -62 111 -48 422 -137 587 -167 118
-22 135 -25 185 -32 25 -3 56 -7 70 -10 186 -30 697 -24 907 10 21 4 52 8 68
10 56 7 195 36 278 57 45 11 89 22 97 24 43 9 260 83 365 125 493 196 959 521
1299 904 33 39 77 88 97 110 144 163 350 484 468 731 103 216 216 539 257 740
16 77 54 301 60 350 4 33 9 76 11 95 8 70 10 517 3 595 -15 159 -21 210 -25
225 -2 8 -7 35 -10 60 -17 122 -62 312 -107 460 -171 553 -458 1031 -863 1435
-182 182 -211 209 -345 311 -280 215 -560 374 -875 497 -267 105 -585 184
-860 213 -27 3 -63 8 -80 10 -34 6 -541 14 -547 9z m492 -495 c36 -5 94 -11
130 -15 36 -4 67 -8 70 -10 3 -2 26 -6 50 -10 236 -34 553 -138 815 -267 66
-33 87 -44 195 -106 195 -112 409 -279 596 -466 335 -335 575 -720 727 -1166
104 -305 152 -592 152 -910 0 -147 -3 -172 -23 -230 -143 -402 -650 -519 -945
-217 -112 115 -163 249 -166 432 -1 55 -4 120 -6 145 -8 116 -17 206 -21 211
-2 3 -6 25 -9 47 -2 23 -10 63 -16 89 -6 26 -13 59 -15 73 -15 83 -102 349
-146 450 -56 126 -107 225 -161 315 -55 92 -134 213 -147 225 -3 3 -28 34 -55
70 -75 96 -90 114 -210 234 -322 324 -733 567 -1169 691 -48 14 -98 27 -110
29 -11 2 -41 9 -66 14 -25 6 -63 13 -85 16 -22 3 -51 8 -65 11 -85 17 -263 29
-415 29 -204 0 -354 -15 -542 -54 -29 -6 -55 -11 -58 -11 -2 0 -24 -7 -47 -15
-36 -12 -41 -12 -28 -1 20 19 185 106 280 147 41 18 89 38 105 45 64 28 242
87 348 115 172 45 305 70 477 86 36 4 66 8 68 9 8 7 432 2 492 -5z m-850 -814
c19 -3 58 -8 85 -11 28 -3 90 -15 139 -25 812 -177 1461 -798 1666 -1595 16
-64 32 -130 35 -148 3 -18 7 -43 10 -57 24 -131 34 -350 20 -440 -32 -217
-215 -414 -430 -463 -285 -64 -577 97 -670 370 -20 59 -24 86 -30 188 -13 262
-34 387 -96 585 -24 76 -23 74 -84 205 -265 574 -825 983 -1455 1063 -139 18
-472 7 -589 -19 -24 -5 -46 -8 -48 -5 -4 4 66 47 178 110 219 121 526 212 829
245 70 8 383 5 440 -3z m-915 -810 c422 -42 802 -276 1030 -632 88 -137 166
-328 191 -464 2 -14 6 -34 9 -45 5 -26 15 -126 19 -190 15 -280 -175 -536
-443 -599 -195 -45 -403 21 -543 173 -56 62 -122 177 -132 231 -3 14 -7 36
-11 50 -3 14 -8 72 -11 130 -3 58 -12 138 -20 179 -67 326 -284 603 -585 745
-148 70 -277 100 -436 101 -46 0 -83 3 -83 6 0 15 185 136 275 180 154 74 302
118 460 134 33 4 61 8 62 9 4 3 159 -2 218 -8z m-790 -830 c162 -51 288 -163
359 -317 37 -82 45 -117 52 -222 6 -103 14 -185 19 -199 2 -7 6 -24 9 -38 9
-58 48 -166 87 -243 129 -256 356 -449 629 -536 104 -33 177 -44 297 -45 46
-1 83 -4 83 -8 0 -4 -35 -32 -77 -63 -136 -97 -368 -200 -518 -229 -64 -13
-76 -15 -138 -21 -418 -43 -823 102 -1121 401 -257 257 -400 590 -405 942 -3
183 45 307 164 428 54 55 89 80 155 112 47 23 108 45 135 51 66 13 207 6 270
-13z m2392 -1330 c16 -28 151 -120 238 -162 163 -80 304 -111 491 -109 123 2
141 5 234 29 30 8 57 13 59 11 5 -6 -67 -131 -127 -219 -168 -247 -401 -472
-658 -633 -56 -36 -227 -125 -284 -149 -36 -14 -78 -32 -95 -39 -95 -40 -329
-102 -450 -119 -183 -26 -518 -28 -640 -2 -11 2 -40 7 -65 10 -131 18 -359 86
-515 154 -125 55 -331 169 -321 179 2 2 25 -1 52 -7 93 -19 120 -22 309 -25
278 -5 471 28 710 121 134 52 176 72 283 136 300 180 563 461 716 766 36 72
48 83 63 58z m1704 -66 c28 -25 150 -94 215 -123 225 -99 532 -108 773 -23 24
9 45 16 47 16 3 0 -23 -69 -47 -125 -4 -11 -22 -54 -39 -95 -95 -230 -282
-531 -465 -747 -75 -89 -290 -301 -380 -374 -435 -356 -988 -598 -1513 -663
-233 -29 -637 -29 -807 0 -16 3 -42 7 -57 9 -15 2 -51 8 -80 14 -29 6 -64 12
-78 15 -100 17 -336 89 -484 148 -117 46 -350 160 -386 189 l-25 19 26 -9 c33
-12 210 -49 274 -57 28 -3 52 -7 55 -9 11 -7 241 -19 355 -19 141 0 303 12
395 29 14 3 44 8 68 11 24 3 104 21 177 39 651 163 1220 567 1593 1131 85 129
150 246 206 374 60 135 63 144 71 170 4 14 16 49 27 78 22 59 14 59 79 2z"/>
</g>
</svg>
